:FULLY-SPECIFIED
:FORCE-ALL-JOINTS-BE-3DOF
:DEGREES
1223
root -0.754343 14.6273 -17.0428 12.7726 18.358 2.22529
lfemur 11.956 -2.01427 -10.331
ltibia 35.5463 -0 0
lfoot 3.31265 25.9013 0.189674
ltoes -30.3824 0 0
rfemur -60.4632 -14.526 23.9022
rtibia 79.5307 -0 0
rfoot -19.8888 -25.0891 -0.12208
rtoes 5.13671 -0 0
lowerback 13.0949 0.0469293 -2.46905
upperback -4.06696 -0.404071 -0.0642602
thorax -11.7659 0.00370189 1.43793
lowerneck -1.07245 -7.91153 -9.28561
upperneck -0.0395004 -10.5456 9.57048
head 1.18775 -5.23477 4.18289
lclavicle -4.03781e-14 -7.95139e-16 0
lhumerus -60.2887 -32.5533 117.657
lradius 85.3771 -0 0
lwrist 11.9325 0 0
lhand -25.2697 17.618 0.324452
lfingers 7.12502 -0 0
lthumb 1.30316 57.498 -0.458678
rclavicle -4.03781e-14 -7.95139e-16 0
rhumerus 68.0115 3.69436 -25.7712
rradius 94.4762 -0 0
rwrist -14.46 0 0
rhand -28.4696 -35.0096 -0.16129
rfingers 7.12502 -0 0
rthumb -1.84003 -64.9763 -0.153268
1224
root -0.760623 14.6541 -16.8643 12.7026 17.814 1.7766
lfemur 10.5429 -2.25733 -10.4808
ltibia 39.7866 -0 0
lfoot 3.67424 24.726 0.249749
ltoes -30.8057 0 0
rfemur -60.0537 -13.7812 24.5336
rtibia 79.5859 -0 0
rfoot -20.1697 -25.6481 -0.149668
rtoes 4.66839 -0 0
lowerback 12.9708 -0.0219253 -1.92121
upperback -4.08236 -0.389135 0.0323452
thorax -11.6993 -0.0234984 1.23242
lowerneck -1.03567 -7.7194 -9.09091
upperneck -0.0664238 -10.2869 9.34417
head 1.12403 -5.10715 4.10882
lclavicle -4.03781e-14 -7.95139e-16 0
lhumerus -60.4161 -33.7885 118.992
lradius 82.8384 -0 0
lwrist 6.08553 0 0
lhand -25.9437 15.0989 0.40823
lfingers 7.12502 -0 0
lthumb 0.675512 59.653 -0.661424
rclavicle -4.03781e-14 -7.95139e-16 0
rhumerus 69.3956 3.5509 -25.1277
rradius 95.0676 -0 0
rwrist -15.296 0 0
rhand -27.9547 -35.7487 -0.182614
rfingers 7.12502 -0 0
rthumb -1.3428 -65.7216 -0.173474
1225
root -0.766904 14.6808 -16.6859 12.5907 17.4178 1.3889
lfemur 9.28489 -2.49393 -10.6004
ltibia 43.9759 -0 0
lfoot 3.87274 23.6244 0.302652
ltoes -31.2544 0 0
rfemur -59.7452 -13.1171 25.0652
rtibia 79.651 -0 0
rfoot -20.363 -26.0495 -0.169648
rtoes 4.17554 -0 0
lowerback 12.8848 -0.077429 -1.42873
upperback -4.07691 -0.368541 0.11575
thorax -11.6336 -0.0450527 1.04172
lowerneck -0.979794 -7.57581 -8.92945
upperneck -0.0985342 -10.0948 9.15177
head 1.06565 -5.01317 4.04525
lclavicle -4.03781e-14 -7.95139e-16 0
lhumerus -60.9213 -34.8434 120.322
lradius 80.4223 -0 0
lwrist 0.558034 0 0
lhand -26.5053 12.5874 0.493423
lfingers 7.12502 -0 0
lthumb 0.153729 62.252 -0.859542
rclavicle -4.03781e-14 -7.95139e-16 0
rhumerus 70.8616 3.14542 -24.4429
rradius 95.6425 -0 0
rwrist -15.8143 0 0
rhand -27.5296 -36.462 -0.200334
rfingers 7.12502 -0 0
rthumb -0.932295 -66.4394 -0.190347
1226
root -0.773184 14.7075 -16.5074 12.4375 17.1388 1.0505
lfemur 8.12655 -2.71077 -10.6939
ltibia 48.1084 -0 0
lfoot 3.92676 22.5868 0.345123
ltoes -31.7179 0 0
rfemur -59.4976 -12.518 25.5057
rtibia 79.7085 -0 0
rfoot -20.4888 -26.3128 -0.181445
rtoes 3.64964 -0 0
lowerback 12.8321 -0.120078 -0.985974
upperback -4.05339 -0.340908 0.188902
thorax -11.5689 -0.0605185 0.8656
lowerneck -0.910694 -7.47202 -8.79569
upperneck -0.130661 -9.95735 8.98759
head 1.0136 -4.94673 3.99045
lclavicle -4.03781e-14 -7.95139e-16 0
lhumerus -61.687 -35.7412 121.631
lradius 78.1343 -0 0
lwrist -4.63254 0 0
lhand -26.9729 10.1334 0.579823
lfingers 7.12502 -0 0
lthumb -0.281766 65.1261 -1.04375
rclavicle -4.03781e-14 -7.95139e-16 0
rhumerus 72.3539 2.54889 -23.7547
rradius 96.1979 -0 0
rwrist -16.086 0 0
rhand -27.1798 -37.148 -0.215628
rfingers 7.12502 -0 0
rthumb -0.594517 -67.1283 -0.205022
1227
root -0.779464 14.7343 -16.3289 12.2443 16.946 0.749824
lfemur 7.01253 -2.89506 -10.7654
ltibia 52.1784 -0 0
lfoot 3.85488 21.6031 0.375124
ltoes -32.1854 0 0
rfemur -59.2705 -11.9692 25.865
rtibia 79.7412 -0 0
rfoot -20.5669 -26.4574 -0.185322
rtoes 3.08222 -0 0
lowerback 12.808 -0.150188 -0.587297
upperback -4.01455 -0.304841 0.254752
thorax -11.5055 -0.0694531 0.703827
lowerneck -0.834121 -7.39927 -8.68416
upperneck -0.157828 -9.86256 8.84602
head 0.968844 -4.90172 3.9427
lclavicle -4.03781e-14 -7.95139e-16 0
lhumerus -62.5933 -36.5102 122.895
lradius 75.9797 -0 0
lwrist -9.46876 0 0
lhand -27.3643 7.7868 0.666285
lfingers 7.12502 -0 0
lthumb -0.648559 68.1067 -1.20716
rclavicle -4.03781e-14 -7.95139e-16 0
rhumerus 73.82 1.83519 -23.0964
rradius 96.7308 -0 0
rwrist -16.1825 0 0
rhand -26.8909 -37.8049 -0.229233
rfingers 7.12502 -0 0
rthumb -0.315474 -67.7868 -0.218202
1228
root -0.785745 14.761 -16.1505 12.0132 16.8087 0.475512
lfemur 5.88748 -3.03434 -10.819
ltibia 56.1803 -0 0
lfoot 3.67565 20.6638 0.391619
ltoes -32.6461 0 0
rfemur -59.023 -11.4567 26.1536
rtibia 79.7317 -0 0
rfoot -20.6172 -26.5025 -0.182049
rtoes 2.46477 -0 0
lowerback 12.8079 -0.167932 -0.227024
upperback -3.96315 -0.258935 0.316258
thorax -11.4436 -0.0714135 0.55617
lowerneck -0.755731 -7.34879 -8.58942
upperneck -0.175198 -9.79845 8.72144
head 0.932314 -4.87201 3.90024
lclavicle -4.03781e-14 -7.95139e-16 0
lhumerus -63.5189 -37.184 124.087
lradius 73.9639 -0 0
lwrist -13.9332 0 0
lhand -27.6968 5.59764 0.750521
lfingers 7.12502 -0 0
lthumb -0.962362 71.0249 -1.34398
rclavicle -4.03781e-14 -7.95139e-16 0
rhumerus 75.2099 1.08083 -22.4961
rradius 97.238 -0 0
rwrist -16.175 0 0
rhand -26.6483 -38.4311 -0.241473
rfingers 7.12502 -0 0
rthumb -0.0811699 -68.4132 -0.230182
1229
root -0.792025 14.7877 -15.972 11.7469 16.6963 0.216435
lfemur 4.69611 -3.11641 -10.859
ltibia 60.1083 -0 0
lfoot 3.40754 19.7591 0.394401
ltoes -33.0894 0 0
rfemur -58.7137 -10.967 26.383
rtibia 79.6624 -0 0
rfoot -20.6594 -26.4674 -0.172663
rtoes 1.78881 -0 0
lowerback 12.8269 -0.173367 0.100541
upperback -3.90196 -0.20178 0.376381
thorax -11.3834 -0.0659565 0.422399
lowerneck -0.681116 -7.31178 -8.50602
upperneck -0.178036 -9.75301 8.60825
head 0.904931 -4.85151 3.86133
lclavicle -4.03781e-14 -7.95139e-16 0
lhumerus -64.3424 -37.8008 125.179
lradius 72.0924 -0 0
lwrist -18.0085 0 0
lhand -27.9873 3.61585 0.829034
lfingers 7.12502 -0 0
lthumb -1.23732 73.7121 -1.44865
rclavicle -4.03781e-14 -7.95139e-16 0
rhumerus 76.4762 0.364456 -21.9766
rradius 97.7166 -0 0
rwrist -16.1348 0 0
rhand -26.4376 -39.0249 -0.252287
rfingers 7.12502 -0 0
rthumb 0.122386 -69.0061 -0.240884
1230
root -0.798306 14.8145 -15.7936 11.4482 16.5779 -0.0382082
lfemur 3.38321 -3.12928 -10.8902
ltibia 63.9567 -0 0
lfoot 3.06901 18.8794 0.38394
ltoes -33.5046 0 0
rfemur -58.3013 -10.4871 26.5654
rtibia 79.5162 -0 0
rfoot -20.7133 -26.3716 -0.15827
rtoes 1.04584 -0 0
lowerback 12.8601 -0.16646 0.401107
upperback -3.8337 -0.131965 0.438088
thorax -11.3252 -0.052638 0.302284
lowerneck -0.615825 -7.27944 -8.42849
upperneck -0.161677 -9.71425 8.50087
head 0.887605 -4.83412 3.82418
lclavicle -4.03781e-14 -7.95139e-16 0
lhumerus -64.9427 -38.4029 126.14
lradius 70.3705 -0 0
lwrist -21.6771 0 0
lhand -28.252 1.89139 0.897198
lfingers 7.12502 -0 0
lthumb -1.48651 75.9994 -1.51548
rclavicle -4.03781e-14 -7.95139e-16 0
rhumerus 77.5737 -0.233858 -21.5563
rradius 98.1635 -0 0
rwrist -16.1332 0 0
rhand -26.2442 -39.5847 -0.261265
rfingers 7.12502 -0 0
rthumb 0.309172 -69.5641 -0.249888
1231
root -0.804586 14.8412 -15.6151 11.1208 16.4227 -0.29881
lfemur 1.89362 -3.06117 -10.9181
ltibia 67.7199 -0 0
lfoot 2.67842 18.0151 0.36127
ltoes -33.8809 0 0
rfemur -57.744 -10.0039 26.7135
rtibia 79.2755 -0 0
rfoot -20.7985 -26.2343 -0.139938
rtoes 0.227371 -0 0
lowerback 12.9029 -0.147109 0.680392
upperback -3.76114 -0.0480807 0.504344
thorax -11.2692 -0.031013 0.195596
lowerneck -0.565377 -7.24298 -8.35137
upperneck -0.121515 -9.67015 8.39371
head 0.881235 -4.81372 3.78702
lclavicle -4.03781e-14 -7.95139e-16 0
lhumerus -65.1989 -39.0347 126.941
lradius 68.8036 -0 0
lwrist -24.9218 0 0
lhand -28.5067 0.474285 0.94947
lfingers 7.12502 -0 0
lthumb -1.72261 77.7183 -1.53856
rclavicle -4.03781e-14 -7.95139e-16 0
rhumerus 78.4578 -0.633334 -21.2504
rradius 98.5757 -0 0
rwrist -16.2415 0 0
rhand -26.0538 -40.109 -0.267687
rfingers 7.12502 -0 0
rthumb 0.493155 -70.0855 -0.256472
1232
root -0.810867 14.8679 -15.4367 10.7683 16.1997 -0.575274
lfemur 0.172263 -2.90057 -10.95
ltibia 71.3921 -0 0
lfoot 2.25409 17.1568 0.327902
ltoes -34.2076 0 0
rfemur -57.0001 -9.50467 26.8412
rtibia 78.923 -0 0
rfoot -20.935 -26.0749 -0.118636
rtoes -0.67509 0 0
lowerback 12.9503 -0.115161 0.944118
upperback -3.68697 0.0512798 0.578117
thorax -11.2156 -0.000635239 0.102104
lowerneck -0.53526 -7.19362 -8.26918
upperneck -0.0530036 -9.60865 8.28122
head 0.886714 -4.78422 3.74809
lclavicle -4.03781e-14 -7.95139e-16 0
lhumerus -64.9878 -39.7418 127.545
lradius 67.3971 -0 0
lwrist -27.7249 0 0
lhand -28.7672 -0.585448 0.97972
lfingers 7.12502 -0 0
lthumb -1.95874 78.6998 -1.51209
rclavicle -4.03781e-14 -7.95139e-16 0
rhumerus 79.084 -0.75327 -21.073
rradius 98.9501 -0 0
rwrist -16.5309 0 0
rhand -25.8519 -40.5959 -0.270566
rfingers 7.12502 -0 0
rthumb 0.688288 -70.5689 -0.259659
1233
root -0.817147 14.8947 -15.2582 10.3953 15.878 -0.876943
lfemur -1.83592 -2.63642 -10.9947
ltibia 74.9676 -0 0
lfoot 1.81429 16.2947 0.285771
ltoes -34.474 0 0
rfemur -56.0276 -8.97699 26.9636
rtibia 78.4413 -0 0
rfoot -21.1424 -25.9126 -0.0952556
rtoes -1.67004 0 0
lowerback 12.9976 -0.0704213 1.19801
upperback -3.61392 0.167523 0.66237
thorax -11.1646 0.0389428 0.0215774
lowerneck -0.530922 -7.12254 -8.17646
upperneck 0.0483298 -9.51768 8.15793
head 0.904921 -4.73951 3.70561
lclavicle -4.03781e-14 -7.95139e-16 0
lhumerus -64.1819 -40.5677 127.914
lradius 66.1565 -0 0
lwrist -30.0692 0 0
lhand -29.049 -1.23773 0.981692
lfingers 7.12502 -0 0
lthumb -2.20958 78.7754 -1.43103
rclavicle -4.03781e-14 -7.95139e-16 0
rhumerus 79.4069 -0.513864 -21.0395
rradius 99.2837 -0 0
rwrist -17.0728 0 0
rhand -25.624 -41.0439 -0.268691
rfingers 7.12502 -0 0
rthumb 0.908508 -71.0128 -0.258256
